# Max2Obj Version 4.0 Mar 10th, 2001
#
# object Box01 to come ...
#
v  -0.500000 0.000000 0.500000
v  0.500000 0.000000 0.500000
v  -0.500000 0.000000 -0.500000
v  0.500000 0.000000 -0.500000
v  -0.500000 1.000000 0.500000
v  0.500000 1.000000 0.500000
v  -0.500000 1.000000 -0.500000
v  0.500000 1.000000 -0.500000
v  -0.500000 0.000000 0.500000
v  0.500000 0.000000 0.500000
v  -0.500000 0.000000 -0.500000
v  0.500000 0.000000 -0.500000
v  -0.500000 1.000000 0.500000
v  0.500000 1.000000 0.500000
v  -0.500000 1.000000 -0.500000
v  0.500000 1.000000 -0.500000
v  -0.500000 0.000000 0.500000
v  0.500000 0.000000 0.500000
v  -0.500000 0.000000 -0.500000
v  0.500000 0.000000 -0.500000
v  -0.500000 1.000000 0.500000
v  0.500000 1.000000 0.500000
v  -0.500000 1.000000 -0.500000
v  0.500000 1.000000 -0.500000
# 24 vertices

vt  0.000000 0.000000 0.000000
vt  1.000000 0.000000 0.000000
vt  0.000000 1.000000 0.000000
vt  1.000000 1.000000 0.000000
vt  0.000000 0.000000 0.000000
vt  1.000000 0.000000 0.000000
vt  0.000000 1.000000 0.000000
vt  1.000000 1.000000 0.000000
vt  0.000000 0.000000 0.000000
vt  1.000000 0.000000 0.000000
vt  0.000000 1.000000 0.000000
vt  1.000000 1.000000 0.000000
# 12 texture vertices

vn  -1.000000 0.000000 -0.000000
vn  1.000000 0.000000 -0.000000
vn  -1.000000 0.000000 -0.000000
vn  1.000000 0.000000 -0.000000
vn  -1.000000 0.000000 -0.000000
vn  1.000000 0.000000 -0.000000
vn  -1.000000 0.000000 -0.000000
vn  1.000000 0.000000 -0.000000
vn  0.000000 -1.000000 -0.000000
vn  0.000000 -1.000000 -0.000000
vn  0.000000 -1.000000 -0.000000
vn  0.000000 -1.000000 -0.000000
vn  0.000000 1.000000 -0.000000
vn  0.000000 1.000000 -0.000000
vn  0.000000 1.000000 -0.000000
vn  0.000000 1.000000 -0.000000
vn  0.000000 0.000000 1.000000
vn  0.000000 0.000000 1.000000
vn  0.000000 0.000000 -1.000000
vn  0.000000 0.000000 -1.000000
vn  0.000000 0.000000 1.000000
vn  0.000000 0.000000 1.000000
vn  0.000000 0.000000 -1.000000
vn  0.000000 0.000000 -1.000000
# 24 vertex normals

g Box01
s 1
f 9/10/9 11/12/11 12/11/12
f 12/11/12 10/9/10 9/10/9
f 13/9/13 14/10/14 16/12/16
f 16/12/16 15/11/15 13/9/13
s 2
f 17/5/17 18/6/18 22/8/22
f 22/8/22 21/7/21 17/5/17
s 4
f 2/1/2 4/2/4 8/4/8
f 8/4/8 6/3/6 2/1/2
s 2
f 20/5/20 19/6/19 23/8/23
f 23/8/23 24/7/24 20/5/20
s 4
f 3/1/3 1/2/1 5/4/5
f 5/4/5 7/3/7 3/1/3
# 12 faces

g
